<?xml version="1.0" ?><!DOCTYPE svg  PUBLIC '-//W3C//DTD SVG 1.1//EN'  'http://www.w3.org/Graphics/SVG/1.1/DTD/svg11.dtd'><svg enable-background="new 0 0 128 128" height="128px" id="Слой_3" version="1.1" viewBox="0 0 128 128" width="128px" xml:space="preserve" xmlns="http://www.w3.org/2000/svg" xmlns:xlink="http://www.w3.org/1999/xlink"><ellipse cx="63.333" cy="107.932" fill="#B8CBCD" rx="47.667" ry="11.814"/><path d="M17,107.119h92v-95L17,107.119z" fill="#F6E89A"/><path d="M109,110.119H17c-1.205,0-2.292-0.721-2.762-1.83c-0.47-1.109-0.231-2.392,0.607-3.257l92-95  c0.851-0.878,2.148-1.152,3.281-0.694c1.133,0.458,1.874,1.559,1.874,2.781v95C112,108.776,110.657,110.119,109,110.119z   M24.081,104.119H106v-84.59L24.081,104.119z" fill="#8D4520"/><path d="M58.042,89.119H90v-33L58.042,89.119z" fill="#FFFFFF"/><path d="M90,91.119H58.042c-0.803,0-1.528-0.481-1.842-1.22c-0.313-0.74-0.154-1.595,0.405-2.171l31.958-33  c0.567-0.585,1.434-0.768,2.187-0.463C91.506,54.571,92,55.304,92,56.119v33C92,90.224,91.104,91.119,90,91.119z M62.763,87.119H88  v-26.06L62.763,87.119z" fill="#8D4520"/><path d="M109,40.119H99c-1.104,0-2-0.896-2-2s0.896-2,2-2h10c1.104,0,2,0.896,2,2S110.104,40.119,109,40.119z" fill="#8D4520"/><path d="M109,47.119h-7c-1.104,0-2-0.896-2-2s0.896-2,2-2h7c1.104,0,2,0.896,2,2S110.104,47.119,109,47.119z" fill="#8D4520"/><path d="M109,54.119H99c-1.104,0-2-0.896-2-2s0.896-2,2-2h10c1.104,0,2,0.896,2,2S110.104,54.119,109,54.119z" fill="#8D4520"/><path d="M109,61.119h-7c-1.104,0-2-0.896-2-2s0.896-2,2-2h7c1.104,0,2,0.896,2,2S110.104,61.119,109,61.119z" fill="#8D4520"/><path d="M109,68.119H99c-1.104,0-2-0.896-2-2s0.896-2,2-2h10c1.104,0,2,0.896,2,2S110.104,68.119,109,68.119z" fill="#8D4520"/><path d="M109,75.119h-7c-1.104,0-2-0.896-2-2s0.896-2,2-2h7c1.104,0,2,0.896,2,2S110.104,75.119,109,75.119z" fill="#8D4520"/><path d="M109,82.119H99c-1.104,0-2-0.896-2-2s0.896-2,2-2h10c1.104,0,2,0.896,2,2S110.104,82.119,109,82.119z" fill="#8D4520"/><path d="M109,89.119h-7c-1.104,0-2-0.896-2-2s0.896-2,2-2h7c1.104,0,2,0.896,2,2S110.104,89.119,109,89.119z" fill="#8D4520"/><path d="M109,96.119H99c-1.104,0-2-0.896-2-2s0.896-2,2-2h10c1.104,0,2,0.896,2,2S110.104,96.119,109,96.119z" fill="#8D4520"/><polygon fill="#B9E3ED" points="22.189,85.119 10.875,73.805 62.494,22.186 83,12.994 73.808,33.5 "/><path d="M22.189,88.119c-0.768,0-1.536-0.293-2.121-0.878L8.754,75.927c-0.563-0.563-0.879-1.326-0.879-2.122  c0-0.795,0.316-1.559,0.879-2.121l51.619-51.619c0.258-0.258,0.561-0.467,0.894-0.616l20.506-9.192  c1.136-0.511,2.468-0.265,3.348,0.616c0.88,0.88,1.125,2.212,0.616,3.348l-9.192,20.506c-0.149,0.333-0.358,0.636-0.616,0.894  L24.31,87.24C23.725,87.826,22.956,88.119,22.189,88.119z M15.118,73.805l7.071,7.071l49.107-49.107l5.745-12.816l-12.816,5.745  L15.118,73.805z" fill="#324654"/><line fill="#B9E3ED" x1="66.736" x2="17.239" y1="29.258" y2="78.755"/><path d="M17.239,80.755c-0.512,0-1.024-0.195-1.414-0.586c-0.781-0.781-0.781-2.047,0-2.828l49.497-49.498  c0.78-0.781,2.047-0.781,2.828,0c0.781,0.781,0.781,2.047,0,2.828L18.653,80.169C18.263,80.56,17.751,80.755,17.239,80.755z" fill="#324654"/><line fill="#B9E3ED" x1="62.494" x2="73.808" y1="22.186" y2="33.5"/><path d="M73.808,35.5c-0.512,0-1.023-0.195-1.414-0.586L61.08,23.6c-0.781-0.781-0.781-2.047,0-2.828  c0.78-0.781,2.047-0.781,2.828,0l11.314,11.314c0.781,0.781,0.781,2.047,0,2.828C74.831,35.305,74.319,35.5,73.808,35.5z" fill="#324654"/></svg>