<?xml version="1.0" ?><!DOCTYPE svg  PUBLIC '-//W3C//DTD SVG 1.1//EN'  'http://www.w3.org/Graphics/SVG/1.1/DTD/svg11.dtd'><svg enable-background="new 0 0 128 128" height="128px" id="Слой_3" version="1.1" viewBox="0 0 128 128" width="128px" xml:space="preserve" xmlns="http://www.w3.org/2000/svg" xmlns:xlink="http://www.w3.org/1999/xlink"><ellipse cx="64.667" cy="107.932" fill="#B8CBCD" rx="47.667" ry="11.814"/><rect fill="#F7BB83" height="62" width="104" x="12" y="44.119"/><path d="M116,109.119H12c-1.657,0-3-1.343-3-3v-62c0-1.657,1.343-3,3-3h104c1.657,0,3,1.343,3,3v62  C119,107.776,117.657,109.119,116,109.119z M15,103.119h98v-56H15V103.119z" fill="#6E4123"/><path d="M11,39.119c0,29.272,9,28,53,28c43,0,53,1.271,53-28" fill="#F7BB83"/><path d="M54.086,70.127c-21.887,0-33.278-0.407-39.85-6.971C9.061,57.987,8,49.808,8,39.119c0-1.657,1.343-3,3-3  s3,1.343,3,3c0,10.883,1.297,16.616,4.476,19.792c5.263,5.255,17.692,5.244,40.249,5.212L64,64.119l5.156,0.004  c22.458,0.024,34.838,0.044,40.241-5.353c3.227-3.222,4.603-9.1,4.603-19.651c0-1.657,1.343-3,3-3s3,1.343,3,3  c0,12.46-1.844,19.383-6.362,23.896c-7.164,7.154-20.417,7.138-44.489,7.107L64,70.119l-5.269,0.004  C57.133,70.125,55.585,70.127,54.086,70.127z" fill="#6E4123"/><path d="M54.086,76.127c-21.887,0-33.278-0.407-39.85-6.971C9.061,63.987,8,55.808,8,45.119  c0-1.657,1.343-3,3-3s3,1.343,3,3c0,10.883,1.297,16.616,4.476,19.792c5.263,5.255,17.692,5.241,40.249,5.212L64,70.119l5.156,0.004  c22.458,0.023,34.838,0.044,40.241-5.353c3.227-3.222,4.603-9.1,4.603-19.651c0-1.657,1.343-3,3-3s3,1.343,3,3  c0,12.46-1.844,19.383-6.362,23.897c-7.164,7.154-20.417,7.138-44.489,7.107L64,76.119l-5.269,0.004  C57.133,76.125,55.585,76.127,54.086,76.127z" fill="#6E4123" opacity="0.2"/><path d="M117,39.119l-7.586-14.235c-0.517-0.971-1.84-1.765-2.94-1.765H19.559c-1.101,0-2.342,0.833-2.759,1.851  L11,39.119" fill="#F7BB83"/><path d="M10.999,42.12c-0.379,0-0.765-0.072-1.137-0.226c-1.533-0.628-2.267-2.38-1.638-3.913l5.8-14.149  c0.881-2.151,3.209-3.713,5.534-3.713h86.915c2.204,0,4.554,1.411,5.589,3.356l7.585,14.233c0.779,1.463,0.226,3.279-1.236,4.059  c-1.462,0.779-3.279,0.226-4.059-1.236l-7.586-14.235c-0.034-0.029-0.252-0.159-0.363-0.181l-86.749,0.005  c-0.038,0.019-0.084,0.049-0.115,0.077l-5.764,14.061C13.3,41.418,12.18,42.12,10.999,42.12z" fill="#6E4123"/><path d="M116,40.119H12c-1.104,0-2-0.896-2-2s0.896-2,2-2h104c1.104,0,2,0.896,2,2S117.104,40.119,116,40.119z" fill="#6E4123"/><path d="M81,32.119c-1.657,0-3-1.343-3-3v-12c0-0.542-0.458-1-1-1H50c-0.542,0-1,0.458-1,1v12c0,1.657-1.343,3-3,3  s-3-1.343-3-3v-12c0-3.859,3.141-7,7-7h27c3.859,0,7,3.141,7,7v12C84,30.776,82.657,32.119,81,32.119z" fill="#6E4123"/><path d="M61,89.119c-2.206,0-4-1.794-4-4v-35c0-2.206,1.794-4,4-4h6c2.206,0,4,1.794,4,4v35c0,2.206-1.794,4-4,4H61z  " fill="#F6E89A"/><path d="M67,48.119c1.104,0,2,0.896,2,2v35c0,1.104-0.896,2-2,2h-6c-1.104,0-2-0.896-2-2v-35c0-1.104,0.896-2,2-2H67   M67,44.119h-6c-3.309,0-6,2.691-6,6v35c0,3.309,2.691,6,6,6h6c3.309,0,6-2.691,6-6v-35C73,46.81,70.309,44.119,67,44.119L67,44.119  z" fill="#6E4123"/><path d="M58,77.119c-2.206,0-4-1.794-4-4v-12c0-2.206,1.794-4,4-4h12c2.206,0,4,1.794,4,4v12c0,2.206-1.794,4-4,4H58  z" fill="#F6E89A"/><path d="M70,59.119c1.104,0,2,0.896,2,2v12c0,1.104-0.896,2-2,2H58c-1.104,0-2-0.896-2-2v-12c0-1.104,0.896-2,2-2H70   M70,55.119H58c-3.309,0-6,2.691-6,6v12c0,3.309,2.691,6,6,6h12c3.309,0,6-2.691,6-6v-12C76,57.81,73.309,55.119,70,55.119  L70,55.119z" fill="#6E4123"/><path d="M70,59.119H58c-1.104,0-2,0.896-2,2v5c0-1.104,0.896-2,2-2h12c1.104,0,2,0.896,2,2v-5  C72,60.014,71.104,59.119,70,59.119z" fill="#FFFFFF"/></svg>