<?xml version="1.0" ?><!DOCTYPE svg  PUBLIC '-//W3C//DTD SVG 1.1//EN'  'http://www.w3.org/Graphics/SVG/1.1/DTD/svg11.dtd'><svg enable-background="new 0 0 128 128" height="128px" id="Слой_3" version="1.1" viewBox="0 0 128 128" width="128px" xml:space="preserve" xmlns="http://www.w3.org/2000/svg" xmlns:xlink="http://www.w3.org/1999/xlink"><g><path d="M12.261,44.077c-0.42,0-0.848-0.089-1.255-0.276c-1.504-0.694-2.161-2.476-1.467-3.981   c0.875-1.897,1.864-3.775,2.938-5.581c0.847-1.424,2.689-1.891,4.112-1.045c1.424,0.847,1.892,2.688,1.045,4.112   c-0.968,1.627-1.858,3.319-2.646,5.028C14.48,43.431,13.395,44.077,12.261,44.077z"/><path d="M64.5,125.619c-2.441-0.001-4.896-0.148-7.297-0.437c-1.645-0.197-2.818-1.691-2.621-3.337   c0.198-1.645,1.694-2.82,3.336-2.62c3.735,0.447,7.609,0.513,11.377,0.186c1.646-0.146,3.105,1.076,3.249,2.727   c0.144,1.65-1.077,3.106-2.728,3.249C68.061,125.541,66.272,125.619,64.5,125.619z M81.332,123.117   c-1.285,0-2.473-0.831-2.868-2.124c-0.485-1.584,0.407-3.262,1.991-3.746c3.625-1.108,7.146-2.604,10.464-4.448   c1.45-0.803,3.275-0.281,4.079,1.166c0.805,1.449,0.283,3.275-1.166,4.08c-3.685,2.047-7.596,3.709-11.623,4.94   C81.918,123.074,81.623,123.117,81.332,123.117z M45.866,122.533c-0.322,0-0.65-0.053-0.972-0.163   c-3.981-1.362-7.834-3.152-11.451-5.32c-1.421-0.852-1.883-2.693-1.031-4.115c0.851-1.422,2.693-1.885,4.115-1.031   c3.258,1.951,6.727,3.563,10.311,4.791c1.568,0.536,2.403,2.242,1.867,3.81C48.277,121.749,47.113,122.533,45.866,122.533z    M102.204,111.534c-0.839,0-1.673-0.35-2.266-1.032c-1.087-1.251-0.954-3.146,0.296-4.232c2.863-2.488,5.476-5.285,7.765-8.313   c0.998-1.321,2.88-1.585,4.203-0.583c1.321,0.999,1.583,2.881,0.583,4.202c-2.54,3.358-5.438,6.461-8.616,9.223   C103.602,111.292,102.902,111.534,102.204,111.534z M25.391,110.27c-0.73,0-1.462-0.265-2.04-0.801   c-3.086-2.863-5.882-6.06-8.31-9.499c-0.955-1.354-0.633-3.226,0.721-4.182c1.352-0.955,3.226-0.632,4.181,0.721   c2.188,3.101,4.708,5.981,7.49,8.562c1.214,1.127,1.286,3.025,0.159,4.239C26.999,109.948,26.196,110.27,25.391,110.27z    M116.59,92.498c-0.427,0-0.86-0.092-1.271-0.285c-1.5-0.703-2.146-2.489-1.443-3.989c1.61-3.435,2.861-7.049,3.717-10.742   c0.374-1.613,1.986-2.616,3.6-2.245c1.614,0.375,2.619,1.986,2.245,3.601c-0.951,4.104-2.341,8.118-4.129,11.934   C118.798,91.859,117.718,92.498,116.59,92.498z M11.634,90.77c-1.164,0-2.271-0.682-2.758-1.818   C7.215,85.08,5.959,81.02,5.144,76.886c-0.32-1.625,0.737-3.203,2.363-3.523c1.627-0.327,3.204,0.737,3.524,2.363   c0.734,3.722,1.864,7.376,3.359,10.861c0.653,1.522-0.051,3.286-1.574,3.939C12.43,90.692,12.029,90.77,11.634,90.77z    M121.99,69.254c-0.02,0-0.04,0-0.059-0.001c-1.657-0.032-2.974-1.4-2.942-3.058c0.007-0.356,0.011-0.713,0.01-1.072   c0-3.453-0.324-6.904-0.963-10.263c-0.31-1.627,0.759-3.198,2.386-3.508c1.627-0.312,3.199,0.759,3.508,2.387   c0.709,3.726,1.069,7.555,1.069,11.38c0,0.396-0.003,0.796-0.011,1.193C124.957,67.949,123.62,69.254,121.99,69.254z M7.006,67.357   c-0.014,0-0.027,0-0.04,0c-1.657-0.021-2.982-1.382-2.96-3.039c0.055-4.226,0.551-8.446,1.475-12.54   c0.365-1.617,1.971-2.63,3.586-2.267c1.616,0.365,2.631,1.971,2.266,3.587c-0.832,3.688-1.279,7.488-1.329,11.298   C9.983,66.04,8.644,67.357,7.006,67.357z M117.515,45.813c-1.171,0-2.283-0.689-2.766-1.836c-1.471-3.492-3.317-6.843-5.488-9.961   c-0.947-1.36-0.612-3.229,0.748-4.176c1.36-0.945,3.229-0.613,4.176,0.747c2.41,3.462,4.46,7.183,6.093,11.059   c0.643,1.527-0.073,3.286-1.6,3.93C118.297,45.737,117.903,45.813,117.515,45.813z M103.88,26.221c-0.737,0-1.475-0.27-2.054-0.814   c-2.767-2.601-5.812-4.919-9.051-6.889c-1.415-0.861-1.865-2.707-1.004-4.122c0.861-1.416,2.708-1.865,4.122-1.004   c3.594,2.186,6.973,4.758,10.042,7.644c1.207,1.135,1.266,3.033,0.131,4.24C105.476,25.904,104.679,26.221,103.88,26.221z    M83.486,13.828c-0.329,0-0.663-0.055-0.99-0.169c-3.575-1.25-7.297-2.126-11.065-2.605c-1.644-0.208-2.807-1.71-2.599-3.353   c0.209-1.644,1.716-2.8,3.354-2.599c4.185,0.531,8.32,1.504,12.291,2.893c1.564,0.547,2.389,2.258,1.842,3.822   C85.886,13.054,84.726,13.828,83.486,13.828z M48.016,13.023c-1.292,0-2.484-0.84-2.873-2.141   c-0.475-1.587,0.426-3.259,2.014-3.734c4.028-1.206,8.205-1.99,12.413-2.331c1.659-0.141,3.099,1.097,3.232,2.748   c0.134,1.652-1.097,3.099-2.748,3.232c-3.79,0.307-7.551,1.013-11.177,2.098C48.59,12.982,48.301,13.023,48.016,13.023z"/><path d="M31.692,20.91c-0.948,0-1.881-0.449-2.465-1.287c-0.946-1.36-0.611-3.229,0.749-4.176c1.72-1.197,3.521-2.317,5.354-3.33   c1.451-0.8,3.275-0.273,4.076,1.176c0.801,1.451,0.274,3.275-1.176,4.076c-1.652,0.912-3.276,1.922-4.827,3.002   C32.881,20.735,32.284,20.91,31.692,20.91z"/><path d="M105.113,76.211c-0.176,0-0.354-0.023-0.532-0.073c-1.065-0.293-1.69-1.394-1.397-2.459   c0.608-2.208,0.944-3.665,1.089-5.501c0.087-1.102,1.057-1.912,2.151-1.837c1.101,0.087,1.923,1.051,1.837,2.151   c-0.169,2.146-0.559,3.852-1.22,6.249C106.795,75.628,105.991,76.211,105.113,76.211z"/><path d="M60.491,108.799c-0.063,0-0.127-0.003-0.191-0.009c-4.288-0.407-8.477-1.44-12.451-3.073   c-1.022-0.419-1.51-1.588-1.09-2.609c0.419-1.022,1.587-1.512,2.61-1.09c3.609,1.481,7.414,2.421,11.309,2.79   c1.1,0.104,1.906,1.08,1.802,2.18C62.381,108.023,61.511,108.799,60.491,108.799z M72.723,108.285   c-0.951,0-1.794-0.681-1.967-1.649c-0.193-1.087,0.531-2.126,1.619-2.319c3.945-0.703,7.636-1.971,10.97-3.769   c0.972-0.522,2.186-0.161,2.71,0.812c0.524,0.973,0.161,2.186-0.811,2.71c-3.708,1.999-7.802,3.407-12.167,4.185   C72.957,108.275,72.84,108.285,72.723,108.285z M38.088,99.611c-0.444,0-0.891-0.147-1.262-0.449   c-3.336-2.718-6.251-5.897-8.661-9.453c-0.62-0.914-0.381-2.157,0.533-2.777c0.914-0.621,2.158-0.381,2.778,0.533   c2.192,3.232,4.842,6.124,7.877,8.596c0.856,0.697,0.985,1.957,0.288,2.813C39.244,99.359,38.668,99.611,38.088,99.611z    M24.509,79.56c-0.853,0-1.643-0.55-1.91-1.407c-1.27-4.089-1.932-8.353-1.967-12.67c-0.009-1.104,0.879-2.008,1.984-2.017   c0.005,0,0.011,0,0.017,0c1.097,0,1.991,0.885,2,1.983c0.032,3.927,0.633,7.801,1.788,11.516c0.328,1.055-0.262,2.176-1.317,2.504   C24.906,79.531,24.706,79.56,24.509,79.56z M105.397,58.116c-0.919,0-1.747-0.637-1.952-1.572   c-0.836-3.814-2.229-7.479-4.142-10.891c-0.54-0.963-0.197-2.182,0.767-2.722c0.965-0.541,2.183-0.196,2.723,0.767   c2.105,3.755,3.64,7.789,4.56,11.99c0.236,1.078-0.446,2.145-1.525,2.382C105.683,58.101,105.539,58.116,105.397,58.116z    M24.31,55.346c-0.186,0-0.375-0.026-0.562-0.081c-1.06-0.311-1.668-1.421-1.358-2.481c1.205-4.121,3.012-8.04,5.371-11.646   c0.605-0.925,1.844-1.183,2.769-0.579c0.924,0.604,1.184,1.844,0.579,2.769c-2.143,3.276-3.785,6.837-4.88,10.58   C25.974,54.778,25.176,55.346,24.31,55.346z M93.568,36.985c-0.5,0-1.001-0.186-1.389-0.561c-2.818-2.719-6.006-5.002-9.476-6.786   c-0.982-0.505-1.37-1.711-0.865-2.693c0.505-0.984,1.711-1.37,2.693-0.865c3.818,1.962,7.325,4.474,10.425,7.464   c0.795,0.767,0.817,2.033,0.051,2.828C94.615,36.78,94.092,36.985,93.568,36.985z M37.556,35.072c-0.57,0-1.135-0.242-1.531-0.712   c-0.711-0.845-0.603-2.107,0.242-2.818c3.297-2.775,6.968-5.042,10.911-6.738c1.015-0.436,2.191,0.033,2.628,1.047   c0.436,1.015-0.032,2.191-1.047,2.628c-3.583,1.541-6.919,3.601-9.916,6.124C38.468,34.917,38.01,35.072,37.556,35.072z    M72.032,25.926c-0.119,0-0.239-0.011-0.36-0.033c-3.805-0.691-7.799-0.826-11.651-0.395c-1.103,0.119-2.087-0.668-2.21-1.766   c-0.123-1.098,0.668-2.087,1.766-2.21c4.238-0.473,8.625-0.325,12.811,0.435c1.087,0.197,1.808,1.239,1.61,2.325   C73.822,25.249,72.98,25.926,72.032,25.926z"/><path d="M94.022,96.693c-0.483,0-0.967-0.174-1.351-0.526c-0.814-0.746-0.869-2.012-0.123-2.825   c1.26-1.374,2.452-2.881,3.543-4.479c0.623-0.912,1.867-1.148,2.779-0.525c0.912,0.623,1.147,1.867,0.524,2.779   c-1.199,1.757-2.51,3.415-3.898,4.929C95.102,96.475,94.563,96.693,94.022,96.693z"/><path d="M59.021,90.838c-0.099,0-0.199-0.007-0.3-0.022c-2.314-0.348-4.328-1.062-6.338-2.246   c-0.952-0.561-1.268-1.786-0.708-2.738c0.561-0.952,1.787-1.27,2.739-0.707c1.575,0.928,3.086,1.463,4.901,1.736   c1.092,0.164,1.845,1.183,1.681,2.274C60.847,90.127,59.994,90.838,59.021,90.838z"/><path d="M70.478,90.373c-0.892,0-1.704-0.6-1.936-1.503c-0.274-1.07,0.371-2.16,1.441-2.435c3.403-0.872,6.591-2.582,9.219-4.943   c0.822-0.738,2.086-0.672,2.825,0.15c0.738,0.821,0.67,2.086-0.151,2.824c-3.106,2.791-6.875,4.812-10.9,5.844   C70.81,90.353,70.643,90.373,70.478,90.373z M86.98,75.555c-0.233,0-0.471-0.042-0.703-0.129c-1.034-0.388-1.558-1.541-1.169-2.575   c0.927-2.469,1.397-5.07,1.396-7.732c0-0.889-0.053-1.784-0.159-2.66c-0.132-1.097,0.65-2.092,1.747-2.224   c1.101-0.129,2.093,0.65,2.225,1.747c0.124,1.033,0.187,2.089,0.187,3.137c0,3.144-0.555,6.219-1.651,9.139   C88.552,75.06,87.79,75.555,86.98,75.555z M40.731,63.758c-0.092,0-0.186-0.006-0.28-0.02c-1.094-0.153-1.857-1.164-1.703-2.258   c0.578-4.121,2.166-8.091,4.593-11.482c0.644-0.899,1.893-1.106,2.791-0.462c0.898,0.643,1.105,1.892,0.462,2.79   c-2.053,2.868-3.396,6.226-3.885,9.709C42.569,63.035,41.712,63.758,40.731,63.758z M84.303,53.545   c-0.637,0-1.263-0.303-1.65-0.867c-1.998-2.909-4.696-5.322-7.801-6.98c-0.975-0.521-1.343-1.732-0.822-2.707   c0.52-0.974,1.731-1.343,2.706-0.822c3.668,1.959,6.854,4.81,9.214,8.244c0.626,0.911,0.395,2.156-0.516,2.781   C85.087,53.431,84.693,53.545,84.303,53.545z M53.623,45.716c-0.728,0-1.43-0.398-1.784-1.092c-0.501-0.984-0.11-2.189,0.874-2.69   c3.672-1.871,7.638-2.819,11.787-2.819l0.259,0.001c1.104,0.014,1.989,0.92,1.975,2.025c-0.014,1.104-0.951,1.952-2.025,1.975   l-0.197-0.001c-3.525,0-6.88,0.802-9.983,2.384C54.238,45.646,53.928,45.716,53.623,45.716z"/><path d="M44.001,80.619c-0.612,0-1.216-0.279-1.608-0.81c-1.37-1.848-2.335-3.812-2.953-6.002c-0.3-1.063,0.319-2.168,1.382-2.468   c1.067-0.303,2.168,0.318,2.468,1.382c0.484,1.716,1.242,3.256,2.317,4.707c0.658,0.887,0.471,2.14-0.416,2.797   C44.833,80.491,44.415,80.619,44.001,80.619z"/><path d="M20.5,37.619c-7.444,0-13.5-6.056-13.5-13.5s6.056-13.5,13.5-13.5c7.444,0,13.5,6.056,13.5,13.5S27.944,37.619,20.5,37.619   z M20.5,14.619c-5.238,0-9.5,4.262-9.5,9.5s4.262,9.5,9.5,9.5c5.238,0,9.5-4.262,9.5-9.5S25.738,14.619,20.5,14.619z"/><path d="M101.5,92.619c-5.79,0-10.5-4.71-10.5-10.5c0-5.79,4.71-10.5,10.5-10.5c5.79,0,10.5,4.71,10.5,10.5   C112,87.909,107.29,92.619,101.5,92.619z M101.5,75.619c-3.584,0-6.5,2.916-6.5,6.5s2.916,6.5,6.5,6.5s6.5-2.916,6.5-6.5   S105.084,75.619,101.5,75.619z"/><path d="M47.5,92.619c-4.687,0-8.5-3.814-8.5-8.5c0-4.687,3.813-8.5,8.5-8.5s8.5,3.813,8.5,8.5   C56,88.805,52.187,92.619,47.5,92.619z M47.5,79.619c-2.481,0-4.5,2.019-4.5,4.5s2.019,4.5,4.5,4.5c2.481,0,4.5-2.019,4.5-4.5   S49.981,79.619,47.5,79.619z"/><path d="M62.572,79.304c-0.118,0-0.237-0.011-0.356-0.032c-0.808-0.146-1.445-0.771-1.606-1.576l-1.09-5.457l-5.527,0.658   c-0.817,0.089-1.608-0.315-1.997-1.037c-0.39-0.723-0.298-1.61,0.231-2.238l3.587-4.256l-3.96-3.911   c-0.584-0.577-0.756-1.452-0.435-2.207c0.322-0.757,1.094-1.26,1.894-1.215l5.564,0.15l0.589-5.534   c0.087-0.816,0.664-1.496,1.455-1.716c0.791-0.218,1.636,0.068,2.131,0.724l3.351,4.444l4.694-2.99   c0.693-0.442,1.584-0.414,2.249,0.067c0.664,0.482,0.967,1.321,0.763,2.117l-1.385,5.391l5.264,1.805   c0.777,0.266,1.312,0.98,1.35,1.8c0.037,0.82-0.43,1.581-1.18,1.917l-5.078,2.277l1.78,4.988c0.145,0.277,0.227,0.593,0.227,0.927   c0,1.104-0.896,2-2,2c-0.006,0-0.013,0-0.021,0c-0.312,0-0.627-0.073-0.916-0.223l-4.947-2.55l-2.932,4.73   C63.903,78.953,63.256,79.304,62.572,79.304z M61.121,68.035c0.941,0,1.771,0.664,1.959,1.608l0.46,2.302l1.236-1.996   c0.55-0.887,1.689-1.204,2.617-0.724l2.087,1.075l-0.79-2.212c-0.351-0.982,0.113-2.069,1.065-2.497l2.142-0.96l-2.22-0.762   c-0.987-0.338-1.548-1.379-1.289-2.39l0.585-2.274l-1.98,1.262c-0.88,0.563-2.043,0.351-2.672-0.482l-1.413-1.875l-0.248,2.335   c-0.11,1.037-1.001,1.844-2.043,1.787l-2.348-0.063l1.671,1.65c0.743,0.733,0.796,1.914,0.124,2.712l-1.514,1.795l2.332-0.277   C60.963,68.04,61.042,68.035,61.121,68.035z"/></g></svg>